<?xml version="1.0" encoding="utf-8"?>
<!-- Generator: Adobe Illustrator 24.0.1, SVG Export Plug-In . SVG Version: 6.00 Build 0)  -->
<svg version="1.1" id="Layer_1" xmlns="http://www.w3.org/2000/svg" xmlns:xlink="http://www.w3.org/1999/xlink" x="0px" y="0px"
	 viewBox="0 0 1024 1008.1" style="enable-background:new 0 0 1024 1008.1;" xml:space="preserve">
<style type="text/css">
	.st0{fill:#8BD0EF;}
	.st1{fill:#070909;}
	.st2{fill:#293E47;}
	.st3{fill:#8BD0EE;}
	.st4{fill:#8ACEED;}
	.st5{fill:#FCBB0D;}
	.st6{fill:#F8F9F9;}
	.st7{fill:#24353D;}
	.st8{fill:#020303;}
	.st9{fill:#0A0708;}
	.st10{fill:#050809;}
	.st11{fill:#F9F8F8;}
	.st12{fill:#3A3E43;}
	.st13{fill:#FAF9F9;}
	.st14{fill:#F8F7F7;}
	.st15{fill:#3A3F44;}
	.st16{fill:#7E3125;}
	.st17{fill:#A01B0E;}
	.st18{fill:#F12451;}
</style>
<g>
	<g>
		<path class="st0" d="M878,1008.1c-232.7,0-465.3,0-698,0c-0.2-0.9-0.1-1.8-0.5-2.6c-13.5-27.8,2.2-58.1,32.6-62.9
			c2.2-0.4,4.8,0.5,7,1.2c6.3,1.9,12.5,4,18.8,6.1c4.6,0,9.3,0,13.9,0c0-0.5,0-1.1,0-1.6c-4.3,0-8.6,0-12.9,0
			c-22.8-4-38-21.9-38.4-45.5c-0.4-21.7,14.6-40.5,35.7-45.2c4.1-0.9,7.7-0.8,11.3,2c2.6,2.1,5.8,3.4,8.7,5.1
			c0.2-0.4,0.5-0.8,0.7-1.2c-1.4-1-2.9-2-4.3-3c-29-19.4-28.6-61.7,0.7-80.2c2.6-1.7,4.5-1.6,7,0c3.3,2.1,7.1,3.6,10.7,5.3
			c-13.2-9.4-16.8-16.7-12.4-28c10.1,5.6,21.1,7.4,32.8,6.4c-5.3,27,3.1,48.8,24.7,64.4c21.6,15.5,45,16,68.7,3.9
			c13.3,27.2,33.1,45.9,63.8,49.7c30.6,3.8,54.7-8.5,72.9-33.4c18.7,25.3,43.1,36.9,73.7,32.9c30.4-4,51.9-20.8,64.9-48.5
			c24.2,11.4,47.4,10.2,68.7-5.5c21.4-15.8,28.3-38.1,25-64.3c18.7,2.6,34.3-3.6,48.4-15.4c5.9,19.4-0.3,34-14.4,46.2
			c19.1-2.8,38.4,9.2,46.2,28.5c7.1,17.5,5,41.1-22.7,58c4.3-1.6,8.2-3.8,12.3-5.7c1.7-0.8,3.9-1.8,5.4-1.2
			c17.2,5.9,30,16.5,34.7,34.8c6.1,23.5-5,45.6-28.9,57.7c0.9,0.1,1.6,0.3,2.1,0.2c2.2-0.6,4.4-1.4,6.7-1.9c1.5-0.4,3.4-1,4.7-0.5
			c13.1,5.2,23.5,13.6,27.8,27.4C878.1,996.4,877.5,1002.4,878,1008.1z"/>
		<path class="st1" d="M238,949.8c-6.3-2-12.5-4.2-18.8-6.1c-2.3-0.7-4.8-1.6-7-1.2c-30.5,4.9-46.1,35.2-32.6,62.9
			c0.4,0.8,0.4,1.7,0.5,2.6c-2,0-4,0-6,0c-1.3-4.9-3.1-9.7-3.9-14.7c-3.7-23.2,12.2-47.3,35-53.5c1.3-0.3,2.6-0.7,4.7-1.3
			c-12.7-15.1-17.9-32.1-11.4-50.9c6.4-18.5,19.1-30.8,39.4-35.1c-10.5-12.7-13.3-27-9.9-42.6c3.4-15.5,12.6-26.8,25.2-34
			c0-7,0.2-13.2-0.1-19.4c-0.1-1.4-1.5-3.1-2.8-4.1c-18.2-13.2-25.7-31.2-24.1-53.3c0.6-8.9,3.3-15.4,11.4-28.8
			c-20-6.9-33.3-20.2-38-41.1c-4.7-20.8,1-38.8,15.9-54.6c-19.7-9.3-30.4-24.8-32-46c-1.6-21.1,6.9-37.8,24.2-50.7
			c-16.8-13.2-25-30.2-23.5-51c1.5-20.8,10.8-37.1,30.5-46.5c-19.7-26.9-17.9-53.2,1.9-79.3c-11.4-17-20.1-35.7-27.4-55
			c-15.1-39.7-23.2-80.7-24.4-123.2c-0.8-26.4,0.5-52.6,7.4-78.2c1.5-5.7,3.9-11.4,6.7-16.6c7.8-14,19.3-18.6,35-14.5
			c20.8,5.4,38.2,17,54.5,30.3c26.1,21.3,48.4,46.1,67.3,74c5.3,7.8,3.7,6.4,11.1,3.2c16.3-6.9,32.7-6.5,49.2-0.7
			c1.6,0.6,3.1,1.1,4.7,1.7c0.2,0.1,0.3,0,1.3,0.1c9.9-24.4,27-41.8,53.6-47.5c26.8-5.7,49.4,3.1,68.3,22.4
			c41.8-44.1,104-23.8,122.8,23.2c20.4-6.6,40.5-6.6,59.7,4.3c6.4-8.7,12.3-17.3,18.7-25.5c24.7-31.3,53.2-58.3,89-76.6
			c7.6-3.9,16-6.6,24.4-8.4c13.7-2.9,24.7,2.2,30.5,14.9c4.5,10,8.2,20.9,9.7,31.7c9.3,68.6,2.3,135.5-25,199.5
			c-6.3,14.7-15,28.4-22.8,42.9c19.9,23.5,21.3,51.2,4.6,74c17.1,11.7,26.6,27.9,27.8,48.7c1.2,20.9-6.2,38.1-23.6,50.4
			c35.5,25.4,31.4,81.7-6.7,98.4c33.8,35.5,14.7,87-22.7,95c6.9,11.5,11.8,23.5,11.3,37.2c-0.4,12.6-3.9,24.2-12,34.2
			c-1,1.2-1.7,3.5-1.2,4.8c5.5,14.3,2.3,27.4-4.9,40.2c-0.3,0.6-0.6,1.2-0.9,1.8c0,0.1,0.1,0.3,0.1,0.4c40.3,12,51.7,55.2,31.3,81.1
			c19,6.7,31.4,19.6,36.3,39.2c5,20-1.7,36.6-15.5,51.3c11.6,5.1,20.2,13.2,25.8,24.5c3.7,7.6,4.3,15.6,4.4,23.8c-2.3,0-4.7,0-7,0
			c-0.5-5.7,0.1-11.7-1.6-17c-4.3-13.8-14.7-22.2-27.8-27.4c-1.3-0.5-3.2,0.1-4.7,0.5c-2.3,0.5-4.4,1.3-6.7,1.9
			c-0.5,0.1-1.2-0.1-2.1-0.2c23.8-12.1,34.9-34.2,28.9-57.7c-4.7-18.3-17.4-28.9-34.7-34.8c-1.5-0.5-3.7,0.5-5.4,1.2
			c-4.1,1.9-8,4.1-12.3,5.7c27.7-16.9,29.8-40.5,22.7-58c-7.8-19.3-27.1-31.3-46.2-28.5c14.1-12.2,20.3-26.8,14.4-46.2
			c-14.1,11.8-29.7,18-48.4,15.4c3.3,26.2-3.7,48.5-25,64.3c-21.3,15.8-44.5,16.9-68.7,5.5c-13,27.7-34.5,44.5-64.9,48.5
			c-30.6,4-55-7.5-73.7-32.9c-18.2,25-42.3,37.2-72.9,33.4c-30.7-3.8-50.5-22.5-63.8-49.7c-23.7,12.1-47.1,11.6-68.7-3.9
			c-21.7-15.6-30-37.4-24.7-64.4c-11.7,1-22.7-0.8-32.8-6.4c-4.5,11.3-0.9,18.6,12.4,28c-3.6-1.7-7.3-3.2-10.7-5.3
			c-2.6-1.7-4.4-1.7-7,0c-29.3,18.6-29.8,60.8-0.7,80.2c1.5,1,2.9,2,4.3,3c-0.2,0.4-0.5,0.8-0.7,1.2c-2.9-1.7-6.1-3-8.7-5.1
			c-3.5-2.8-7.2-2.9-11.3-2c-21.2,4.7-36.1,23.5-35.7,45.2c0.4,23.6,15.6,41.5,38.4,45.5C238.6,948.8,238.3,949.3,238,949.8z
			 M648,819.1c2.3,1.5,4.7,3,7,4.6c12.8,9,27.1,13.2,42.5,10.9c36.2-5.3,57.1-33.3,52.4-69.6c-0.2-1.8-1.7-3.9-3.2-4.9
			c-3.9-2.7-8.2-5-12.3-7.4c3.8,0.2,7.3,1.4,10.6,2.6c19.2,7.2,36.7,3.6,52.3-9.1c20.4-16.5,26.5-49.3,7.5-75.2
			c-0.9-1.2-3.3-1.6-5.1-1.9c-6.7-1.2-13.5-2.3-20.3-3.4c0.1-0.6,0.1-1.3,0.2-1.9c13.2,3.8,26,3.6,38.5-2.5
			C830.8,655,839,645,843,631.5c3.4-11.5,3.3-23.2-1.6-34.2c-4.7-10.5-10-20.8-22.4-24.9c22.9-3.5,38.1-21.2,39.3-46.2
			c0.6-11.2-1.9-21.9-8.3-31.3c-6.2-9.2-14-16.5-24.5-18.2c4.8-2.6,10.8-4.9,15.6-8.7c10-7.9,14.5-19.1,16.4-31.5
			c3.3-21.2-8.1-45.4-26.2-54.6c-2.3-1.2-5.6-1-8.4-0.8c-3.2,0.2-6.3,1.1-9.4,1.8c-0.1-0.5-0.2-1-0.3-1.5
			c14.8-1.6,22.7-10.9,26.5-24.2c9.8-34.4-23.5-75.4-59.3-73c-1.4,0.1-3.4,1.8-3.8,3.2c-3.9,11.3-10.9,20.2-20.5,26.9
			c-26,18.1-54.6,21.8-84.8,14.2c-28-7.1-49.7-23.3-65.1-48.4c-17.2,37-46.2,57-86.5,58.8c-40.3,1.8-70.9-15.4-90-50.9
			c-4.3,4.8-8.2,10.2-13,14.4c-26.1,22.5-56.6,31.5-90.4,26.5c-25.7-3.8-46.3-16.2-57.2-41.2c-1.4-3.2-3.6-2.9-6.1-2.9
			c-14.8,0.2-27.5,5.9-38.4,15.6c-21.8,19.3-24.8,53-6.7,75.3c2.3,2.8,4.6,4.3,8.5,3.8c4.3-0.5,8.7-0.1,13.2-0.1
			c-6.4,1.2-12.6,2.3-18.8,3.4c-18.6,5.4-31.2,22.9-31.8,44.3c0.4,5.7-0.1,11.7,1.4,17.2c4.4,16.2,13.4,28.5,29.7,32.5
			c-3.6,2-8.3,4-12.4,7c-18.9,14-25,40.4-14.6,62.4c8,17,24.1,26.4,41.8,24.5c0,0.5,0,0.9,0.1,1.4c-4.3,0.9-9.7,0.4-12.7,2.8
			c-16.5,13.4-22.2,31.3-17.9,51.8c4.2,19.8,16.5,33.1,36.2,38.6c5.9,1.6,12.3,1.6,18.5,2.3c0.1,0,0.2-0.1,0.3-0.2
			c0,0.1,0,0.2,0,0.6c-2,0.4-4.2,1.3-6.2,1c-9.5-1.1-13.9,5-17.2,12.1c-8.9,18.9-7.3,37.4,4.6,54.4c12,17,28.9,25,49.9,23.2
			c4.1-0.4,8.1-1.4,10.8-1.9c-1.7,4.2-4.3,8.6-5.3,13.4c-2.2,9.9,0,19.5,3.7,28.8c14.3,35.2,55.8,47.4,89.4,26.2
			c1.1-0.7,2.3-1.3,3.2-1.8c-0.5,2.7-2.2,5.7-1.3,7.6c5.3,11.4,12.3,21.6,22,29.9c33.6,28.8,85.3,20,107.2-18.4
			c0.7-1.2,1.5-2.3,2.5-3.7c1.1,1.7,1.9,3,2.8,4.2c14.2,21.7,33.6,34.5,60,34.3c31.6-0.2,54.3-15.1,68.8-43c1.5-3,1.7-5.2-1-7.8
			c-2.1-2-3.4-4.8-5.1-7.2L648,819.1z M779,278.3c2.9-0.4,7,0.2,9-1.5c6.4-5.7,10.7-13,12.2-21.8c3-17.9-4.4-31.8-16.9-43.6
			c-10.8-10.3-23.9-16.2-38.7-18c-3.2-0.4-4.4-1.6-4.6-5c-0.2-5.1-1-10.3-2.1-15.3c-8.8-37.7-46.4-60.6-83.3-50.8
			c-3.8,1-7.5,2.3-11.4,3.5c-9.6-25.6-27.1-42.3-53.8-47.4c-27.2-5.2-49.1,5.2-66.4,26.6c-18-21.6-40.1-31.6-67.3-25.5
			c-26.9,6-43.5,23.6-51.2,50.2c-23.3-11.1-46.4-12.7-68.5,2.2c-21.9,14.8-30.6,36.1-28.1,61.6c-0.6,0.5-0.7,0.7-0.8,0.7
			c-1,0.1-2,0.1-3,0.2c-15.3,1.5-29.2,6.3-40.1,17.8c-17,18-21.6,41.9-12,63.7c0.7,1.6,2.2,3.8,3.7,4c3.2,0.5,6.5-0.1,9.9-0.3
			c-0.2-6.5-1.5-12.7,2-18.1c0.7,0.3,0.9,0.3,1,0.4c0.1,1.2,0.3,2.3,0.4,3.5c1.5,25.8,14.7,43.4,38.3,52.8
			c25.2,10,50.7,8.3,75.5-1.4c18.2-7.1,34.6-17.4,43.2-36.3c0.5-1.1,1.5-2.1,3-4c1.8,2.8,3.3,5.1,4.7,7.4
			c4.3,6.9,7.7,14.5,12.9,20.6c18.9,21.8,43.8,30.4,71.9,29.2c36.4-1.6,64.3-17.6,80.2-51.5c1.1-2.3,1.8-4.7,3.1-6.8
			c0.9-1.5,2.2-3.5,3.5-3.6c1.1-0.1,2.8,1.8,3.7,3.2c1.7,2.6,2.9,5.6,4.6,8.3c26.1,39.8,85,55.5,127.4,34.1
			c19.2-9.7,31.4-24.3,33.1-46.4c0.3-3.7,0-7.4,0-11.2c0.7-0.1,1.4-0.1,2.1-0.2C777.3,265.3,778,271.3,779,278.3z M745.3,181.1
			c1.6-3.3,2.9-6,4.2-8.7c14.5-30,30.3-59.3,51.6-85.1c5.3-6.4,12-12.2,19.1-16.5c9.6-5.8,19.4-3,25.7,6.4c3.1,4.6,5.6,9.9,7.1,15.2
			c6.1,21.7,5.5,44,2.7,66c-5.6,44.5-19.5,86.4-41.5,125.6c-0.6,1.1-1.1,2.3-1.6,3.6c4.5,3.3,8.8,6.5,13.2,9.8
			c1.1-1.6,2.3-2.8,3-4.2c8.1-15.8,17.7-31,23.9-47.5c22.4-59.5,28.9-121.1,19.9-184.1c-1.5-10.2-4.5-20.5-8.5-30
			c-4.9-11.6-14.6-16.1-26.6-12.6c-10.4,3-21.1,6.6-30.4,12c-38,22.3-67.6,53.6-92.5,89.6c-1.3,1.8-2.2,3.9-3.2,5.8
			C732.4,144.2,734.4,147.3,745.3,181.1z M235.6,285.6c-1.4-2.5-2.7-4.8-4-7.1C202,228.7,186.4,175.3,190,116.9
			c0.8-13.2,2.9-26.1,8.9-38.1c6.3-12.7,17.3-16,28.8-7.9c7.1,5,13.8,11.1,19.5,17.7c20,23,35.3,49.1,48.2,76.6
			c2.4,5,4.6,10.1,7.5,16.4c1-25.1,13.5-42.2,31.8-56c-20.3-29.8-43.1-56.3-70.8-78.4c-14.2-11.4-28.8-22.2-46.5-27.5
			c-5.7-1.7-12.2-2.7-18.1-2c-11.4,1.3-17.1,10.3-19.9,20.1c-3.7,13-6.9,26.4-8.2,39.9c-3.5,35.3-1.1,70.4,5.7,105.3
			c7.5,38.5,19.3,75.3,39.9,108.9c1,1.6,2.1,3.2,3.1,4.7C225.4,292.7,230.3,289.3,235.6,285.6z M299.6,188.7c-0.6-1.7-1-3.1-1.6-4.5
			c-12.4-31.5-29.3-60.4-50.3-86.9c-6-7.5-12.6-14.7-20.1-20.7c-11.1-8.8-20.7-5.8-25.9,7.4c-2.2,5.5-3.5,11.4-4.6,17.3
			c-3.9,21.3-2.9,42.7-0.1,64.1c5.2,40.2,18.3,77.5,39.7,111.9c4.3,6.8,4.4,6.8,12,3.1C229.2,236.5,258.7,194,299.6,188.7z
			 M807.2,283.8c1.1-1.7,2.1-3.2,3-4.7c15.8-27.1,26.3-56.3,33.7-86.6c7.1-29.2,10.2-58.7,6-88.6c-1.2-8.6-3.3-17-8.8-24.1
			c-4.8-6.2-10-8-17-4.7c-5,2.4-10.4,5.4-13.7,9.6c-10,12.6-20,25.4-28.2,39.2c-10.5,17.7-19.4,36.4-28.9,54.7
			c-1.6,3.1-3.1,6.4-4.6,9.4c6.6,2.3,12.8,3.9,18.5,6.5c5.7,2.7,11.3,5.9,16.1,9.8c16.8,13.8,26.4,31.1,21.5,53.4
			c-1.7,7.6-6.2,14.7-9.4,22C798.5,280.8,802.5,282.2,807.2,283.8z"/>
		<path class="st2" d="M238,949.8c0.3-0.5,0.7-1.1,1-1.6c4.3,0,8.6,0,12.9,0c0,0.5,0,1.1,0,1.6C247.2,949.8,242.6,949.8,238,949.8z"
			/>
		<path class="st3" d="M234.9,570.5c-17.7,1.9-33.8-7.6-41.8-24.5c-10.4-22-4.3-48.4,14.6-62.4c4.1-3,8.8-5,12.4-7
			c-16.4-4.1-25.4-16.3-29.7-32.5c-1.5-5.5-1-11.4-1.4-17.2c1.3-1.4,3.2-2.6,3.9-4.3c6-14.3,16.6-24.1,30.4-30.6
			c2.2-1,4.3-2.1,5.9-2.8c-3-2.3-5.7-4.5-8.4-6.6c6.2-1.1,12.4-2.2,18.8-3.4c-4.6,0-9-0.4-13.2,0.1c-3.9,0.5-6.2-1-8.5-3.8
			c-18.1-22.3-15.1-56,6.7-75.3c11-9.7,23.6-15.4,38.4-15.6c2.5,0,4.7-0.3,6.1,2.9c10.9,25,31.5,37.5,57.2,41.2
			c33.8,5,64.4-4,90.4-26.5c4.9-4.2,8.7-9.6,13-14.4c19.1,35.5,49.7,52.7,90,50.9C560,337,589,317,606.2,280
			c15.4,25.1,37.1,41.4,65.1,48.4c30.2,7.6,58.8,4,84.8-14.2c9.7-6.7,16.7-15.6,20.5-26.9c0.5-1.4,2.5-3.2,3.8-3.2
			c35.8-2.3,69.1,38.6,59.3,73c-3.8,13.3-11.7,22.6-26.5,24.2c0.1,0.5,0.2,1,0.3,1.5c3.1-0.6,6.2-1.5,9.4-1.8c2.8-0.2,6-0.4,8.4,0.8
			c18.1,9.3,29.4,33.5,26.2,54.6c-1.9,12.4-6.4,23.6-16.4,31.5c-4.8,3.8-10.8,6.1-15.6,8.7c10.5,1.7,18.3,9,24.5,18.2
			c6.4,9.4,8.8,20.1,8.3,31.3c-1.2,25-16.4,42.7-39.3,46.2c12.4,4.1,17.8,14.4,22.4,24.9c4.9,11,5,22.7,1.6,34.2
			c-4,13.5-12.2,23.4-24.9,29.6c-12.4,6-25.3,6.3-38.5,2.5c-0.1,0.6-0.1,1.3-0.2,1.9c6.8,1.1,13.5,2.2,20.3,3.4
			c1.8,0.3,4.2,0.7,5.1,1.9c19,25.9,12.9,58.7-7.5,75.2c-15.7,12.7-33.1,16.3-52.3,9.1c-3.4-1.3-6.8-2.4-10.6-2.6
			c4.1,2.4,8.4,4.7,12.3,7.4c1.5,1.1,3,3.2,3.2,4.9c4.6,36.3-16.2,64.3-52.4,69.6c-15.4,2.3-29.7-1.9-42.5-10.9
			c-2.3-1.6-4.7-3.1-7-4.6c-0.2-0.2-0.5-0.4-0.7-0.5c0,0.2,0,0.3,0,0.5c0.3,0,0.5,0,0.8-0.1c1.7,2.4,3,5.2,5.1,7.2
			c2.7,2.6,2.5,4.9,1,7.8c-14.4,27.9-37.2,42.8-68.8,43c-26.4,0.2-45.8-12.6-60-34.3c-0.8-1.2-1.6-2.5-2.8-4.2
			c-1,1.4-1.9,2.5-2.5,3.7c-21.9,38.4-73.6,47.2-107.2,18.4c-9.7-8.3-16.7-18.5-22-29.9c-0.9-1.8,0.8-4.8,1.3-7.6
			c-0.8,0.5-2,1.1-3.2,1.8c-33.6,21.2-75.1,9-89.4-26.2c-3.7-9.2-5.9-18.9-3.7-28.8c1-4.8,3.6-9.2,5.3-13.4
			c-2.7,0.5-6.7,1.6-10.8,1.9c-21,1.8-37.9-6.2-49.9-23.2c-11.9-16.9-13.5-35.4-4.6-54.4c3.4-7.2,7.8-13.2,17.2-12.1
			c2,0.2,4.2-0.7,6.2-1c0-0.4,0-0.5,0-0.6c-0.1,0.1-0.2,0.2-0.3,0.2c-6.2-0.7-12.6-0.6-18.5-2.3c-19.8-5.4-32-18.7-36.2-38.6
			c-4.3-20.5,1.4-38.4,17.9-51.8c3-2.5,8.4-1.9,12.7-2.8c4.1-1.2,8.3-2.3,12.4-3.5c-0.1-0.5-0.3-0.9-0.4-1.4
			C242.9,568.2,238.9,569.4,234.9,570.5z M356.5,548.4c-16.5,8-32.3,17.6-51,20.7c6.3,0.7,12.6,0.8,18.6,0c3.7-0.5,5.4,0,7,3.7
			c16.5,37.4,41.3,68.1,74.2,92.3c43.7,32,92.2,46.7,146.2,37.5c68.1-11.5,118.1-49.3,151.8-109c5.1-9,8.8-18.9,13-27.9
			c9.3,1.7,18.7,3.5,28.1,5.3c0-0.4,0.1-0.7,0.1-1.1c-16.3-7.2-32.7-14.4-49-21.5c-0.2,0.3-0.4,0.5-0.6,0.8
			c5.5,4.5,10.9,9.1,16.5,13.8c-0.1,0.5-0.3,1.4-0.6,2.1c-13.9,35-34.7,65.1-64.1,88.8C596,694.6,539,709.6,475.5,692.8
			c-46.7-12.3-83.4-40.3-112.9-78.2c-11.5-14.8-20.8-30.8-27.6-47.2c7.7-6.4,14.9-12.3,22.1-18.3c0.2-0.3,0.4-0.6,0.6-0.9
			C357.3,548.3,356.9,548.4,356.5,548.4z M627,435.9c-0.5,47.3,38.5,74.8,73.9,76.2c36.8,1.5,80.8-30.2,80.8-80.4
			c0-42.6-33.9-77.1-75-77.1C662.5,354.5,627,390.7,627,435.9z M343.6,512.1c35.4-0.7,73.9-26.8,76.2-74.7
			c2.1-43.2-32.5-81.3-75.6-82.7c-41.9-1.3-78.4,29.4-80.1,75.6C262.5,469.8,292.9,511.2,343.6,512.1z M520.4,533.5
			c0,8.7,0.2,17.2-0.1,25.7c-0.1,1.7-1.4,3.7-2.8,4.9c-21.7,20.6-60.3,21.5-83.6,2.4c-13.9-11.4-24.5-34.3-10.2-52.1
			c0.5-0.7,0.2-2,0.3-3c-1.3,0.2-3.1-0.1-4,0.6c-4.8,4-7.3,9.5-8.1,15.6c-2.5,18.7,5.5,32.8,19.5,44.4c1.6,1.3,3,3.6,3.2,5.5
			c1.8,26.1,11.7,48.6,29.6,67.6c29.7,31.5,79.6,33.5,111,3.9c20.5-19.3,31-43.6,33.7-71.5c0.2-1.8,1.6-3.7,2.9-5.2
			c5.2-6.2,11.5-11.7,15.5-18.6c7.6-13.1,8-27-0.6-40.1c-1.1-1.8-4.1-2.4-6.2-3.5c0.5,2.1,0.5,4.5,1.7,6.2
			c5.5,7.8,6.2,16.4,4.1,25.3c-3.7,15.4-13.7,25.5-27.5,32.3c-22.3,10.9-52.3,7.3-68.5-7.9c-3.1-2.9-4.8-5.9-4.5-10.3
			c0.4-6,0.1-12-0.2-18c-0.1-2.9,0.5-4.4,3.8-5c8.7-1.7,17.1-5,22-12.5c4.4-6.7,9.5-9.3,17.3-10.4c11-1.6,18.5-8.9,21.6-19.8
			c2.6-9.1,0.2-17.7-7.3-23.3c-6.4-4.8-13.8-9-21.3-11.3c-24.4-7.5-49.2-7.6-74-2c-11.3,2.6-22,6.6-30.1,15.6
			c-7.5,8.3-8.7,18-2.9,27c6.5,10.2,16.3,14.8,28.2,15c2.7,0,4.5,0.4,6.1,3.1C495.9,525.3,506.1,531.8,520.4,533.5z M250.8,565.7
			c-0.1-0.2-0.2-0.4-0.3-0.6c-0.1,0.1-0.3,0.2-0.3,0.3c0,0.2,0.2,0.4,0.3,0.6C250.6,565.9,250.7,565.8,250.8,565.7z M248.1,566.7
			c0.1,0.1,0.2,0.2,0.4,0.4c0.1-0.2,0.3-0.4,0.3-0.7c0-0.1-0.2-0.2-0.3-0.3C248.4,566.3,248.3,566.5,248.1,566.7z"/>
		<path class="st0" d="M779,278.3c-0.9-7-1.7-13-2.5-19.1c-0.7,0.1-1.4,0.1-2.1,0.2c0,3.7,0.2,7.5,0,11.2
			c-1.7,22.1-14,36.7-33.1,46.4c-42.4,21.4-101.3,5.7-127.4-34.1c-1.7-2.6-2.9-5.6-4.6-8.3c-0.9-1.4-2.6-3.4-3.7-3.2
			c-1.3,0.2-2.6,2.2-3.5,3.6c-1.2,2.1-2,4.6-3.1,6.8c-16,33.9-43.8,49.9-80.2,51.5c-28.1,1.2-53-7.4-71.9-29.2
			c-5.2-6.1-8.6-13.7-12.9-20.6c-1.4-2.3-2.9-4.5-4.7-7.4c-1.5,2-2.5,2.9-3,4c-8.7,18.9-25,29.2-43.2,36.3
			c-24.8,9.7-50.3,11.4-75.5,1.4c-23.7-9.4-36.8-27-38.3-52.8c-0.1-1.2-0.2-2.3-0.4-3.5c0-0.1-0.2-0.1-1-0.4
			c-3.5,5.5-2.2,11.6-2,18.1c-3.5,0.2-6.8,0.8-9.9,0.3c-1.4-0.2-2.9-2.4-3.7-4c-9.6-21.8-5-45.7,12-63.7
			c10.9-11.6,24.7-16.4,40.1-17.8c1-0.1,2-0.1,3-0.2c0.1,0,0.2-0.2,0.8-0.7c-2.5-25.6,6.1-46.8,28.1-61.6
			c22.1-14.9,45.1-13.3,68.5-2.2c7.6-26.6,24.3-44.2,51.2-50.2c27.2-6.1,49.3,3.9,67.3,25.5c17.2-21.3,39.2-31.7,66.4-26.6
			c26.7,5.1,44.2,21.8,53.8,47.4c3.9-1.2,7.6-2.5,11.4-3.5c36.8-9.8,74.4,13.2,83.3,50.8c1.2,5,1.9,10.2,2.1,15.3
			c0.1,3.5,1.4,4.6,4.6,5c14.8,1.9,27.9,7.7,38.7,18c12.4,11.8,19.8,25.7,16.9,43.6c-1.5,8.8-5.7,16-12.2,21.8
			C786,278.5,781.9,277.9,779,278.3z"/>
		<path class="st4" d="M745.3,181.1c-10.9-33.7-12.9-36.9-33.9-54.8c1-1.9,2-4,3.2-5.8c24.9-36,54.5-67.3,92.5-89.6
			c9.3-5.5,19.9-9,30.4-12c12-3.4,21.8,1.1,26.6,12.6c4,9.5,7,19.8,8.5,30c9,63,2.5,124.6-19.9,184.1c-6.2,16.5-15.8,31.7-23.9,47.5
			c-0.7,1.4-1.9,2.7-3,4.2c-4.5-3.3-8.7-6.4-13.2-9.8c0.6-1.3,1-2.5,1.6-3.6c22-39.2,35.8-81.1,41.5-125.6c2.8-22,3.4-44.2-2.7-66
			c-1.5-5.3-4-10.6-7.1-15.2c-6.3-9.4-16.1-12.2-25.7-6.4c-7.1,4.3-13.8,10-19.1,16.5c-21.3,25.8-37,55.2-51.6,85.1
			C748.2,175.1,746.9,177.8,745.3,181.1z"/>
		<path class="st4" d="M235.6,285.6c-5.4,3.7-10.3,7.1-15.7,11c-1-1.6-2.1-3.1-3.1-4.7c-20.6-33.6-32.4-70.5-39.9-108.9
			c-6.8-34.9-9.2-70-5.7-105.3c1.3-13.5,4.5-26.9,8.2-39.9c2.8-9.8,8.5-18.7,19.9-20.1c5.9-0.7,12.3,0.3,18.1,2
			c17.7,5.3,32.4,16.1,46.5,27.5c27.6,22.1,50.5,48.6,70.8,78.4c-18.3,13.8-30.8,30.9-31.8,56c-2.9-6.3-5.1-11.4-7.5-16.4
			c-12.9-27.5-28.2-53.6-48.2-76.6c-5.7-6.6-12.4-12.6-19.5-17.7c-11.5-8.1-22.5-4.8-28.8,7.9c-6,12-8.1,25-8.9,38.1
			c-3.7,58.4,12,111.8,41.6,161.6C232.9,280.8,234.2,283.1,235.6,285.6z"/>
		<path class="st5" d="M299.6,188.7c-40.9,5.3-70.4,47.8-50.9,91.8c-7.6,3.6-7.7,3.7-12-3.1c-21.4-34.4-34.5-71.7-39.7-111.9
			c-2.8-21.4-3.7-42.8,0.1-64.1c1.1-5.9,2.4-11.8,4.6-17.3c5.2-13.2,14.8-16.2,25.9-7.4c7.5,6,14.1,13.2,20.1,20.7
			c21.1,26.4,38,55.4,50.3,86.9C298.5,185.6,299,187,299.6,188.7z"/>
		<path class="st5" d="M807.2,283.8c-4.7-1.6-8.7-3-11.9-4.1c3.2-7.3,7.7-14.4,9.4-22c4.9-22.3-4.7-39.6-21.5-53.4
			c-4.8-4-10.4-7.2-16.1-9.8c-5.7-2.7-11.8-4.3-18.5-6.5c1.5-3,3-6.3,4.6-9.4c9.5-18.3,18.4-37,28.9-54.7
			c8.2-13.8,18.2-26.6,28.2-39.2c3.3-4.2,8.7-7.2,13.7-9.6c7-3.4,12.3-1.6,17,4.7c5.4,7.1,7.6,15.5,8.8,24.1
			c4.2,29.9,1.1,59.5-6,88.6c-7.4,30.3-17.9,59.5-33.7,86.6C809.3,280.7,808.3,282.1,807.2,283.8z"/>
		<path class="st6" d="M220.8,382.6c2.7,2.1,5.5,4.3,8.4,6.6c-1.6,0.8-3.8,1.8-5.9,2.8c-13.8,6.5-24.4,16.2-30.4,30.6
			c-0.7,1.7-2.6,2.9-3.9,4.3C189.6,405.5,202.2,388,220.8,382.6z"/>
		<path class="st7" d="M234.9,570.5c4-1.2,8-2.3,12.1-3.5c0.1,0.5,0.3,0.9,0.4,1.4c-4.1,1.2-8.3,2.3-12.4,3.5
			C234.9,571.4,234.9,571,234.9,570.5z"/>
		<path class="st8" d="M627,435.9c0-45.2,35.5-81.3,79.8-81.3c41.1,0,75,34.5,75,77.1c0,50.3-44,81.9-80.8,80.4
			C665.5,510.7,626.5,483.1,627,435.9z M700.4,506.3c42.2,0.7,75.1-32.6,76-73.3c0.8-33.5-21.8-67.3-61.8-72.7
			c-32-4.3-70.7,19.3-76.5,47.1c23.3-29.1,52.2-40.4,86.8-24.8c22.8,10.3,35.4,30.7,34.9,56.1C758.9,476.9,736.9,498.3,700.4,506.3z
			 M645.8,409.1c-1.6,0.7-2,0.7-2.2,0.9c-0.5,0.5-0.9,1-1.3,1.5c-6.5,10.4-9.7,21.5-8.5,34c2.9,30.7,28.2,57.9,63.2,54.7
			c19-1.7,34.5-9.4,45.9-24.7c7.5-10.2,11.9-21.7,12-34.5c-8.9,37.2-42.3,54.2-68.8,48.4c-15.2-3.3-27.2-11.4-35.6-24.5
			C639.3,447.7,636.8,429.3,645.8,409.1z M675.3,430.9c11.2,0.2,20.4-8.5,20.7-19.8c0.3-11-8.4-20.3-19.3-20.6
			c-10.3-0.3-20,9.3-20.2,19.9C656.3,421.4,664.9,430.7,675.3,430.9z"/>
		<path class="st8" d="M343.6,512.1c-50.7-0.8-81-42.2-79.5-81.7c1.8-46.2,38.3-77,80.1-75.6c43.1,1.4,77.7,39.4,75.6,82.7
			C417.5,485.2,378.9,511.3,343.6,512.1z M395.9,399.2c0.2,0.2,0.4,0.3,0.6,0.5c-0.1-0.2-0.3-0.4-0.4-0.6c-0.2-0.1-0.4-0.3-0.6-0.4
			C395.6,398.8,395.8,399,395.9,399.2z M354.1,505c-16.2-1.1-31.1-5.4-43.7-15.9c-12.7-10.6-19.9-24.3-23-40.3
			c-4.7-24.2,6-50.4,28.3-63.5c35.1-20.7,65.2-10.6,91.4,17.8c-11.8-32.2-50.3-49.8-81.5-42.1c-40.6,10-63.7,46.7-54.2,88.5
			C279.8,487.1,314.7,511.7,354.1,505z M296.6,414.7c-10.7,22.8-4,63.7,31.3,78.9c29.3,12.6,63,4.8,79-30.2
			c11.5-25.1,4.2-52.2-9.4-61.8c-0.1,0.1-0.2,0.3-0.2,0.4c0.1,0.5,0.3,0.9,0.5,1.4c5.9,11.3,8.8,23.1,7.3,35.9
			c-3.7,32-32.7,53.2-64.3,46.7c-21.2-4.4-40.2-24.3-42.7-45.6C297.1,432,297.1,423.5,296.6,414.7z M327.1,431.6
			c11.8,0.1,20.6-8.8,20.7-20.8c0.1-10.9-9.3-20.5-20.2-20.5c-11.7,0-21.2,9.2-21.2,20.6C306.5,421.9,316.1,431.5,327.1,431.6z
			 M407.4,404.3c-0.1,0.1-0.1,0.2-0.2,0.3c0.2,0,0.4,0,0.6,0c-0.1-0.1-0.1-0.3-0.2-0.3C407.6,404.2,407.5,404.3,407.4,404.3z"/>
		<path class="st9" d="M520.4,533.5c-14.3-1.8-24.5-8.2-31.5-19.6c-1.6-2.6-3.4-3-6.1-3.1c-11.9-0.2-21.7-4.8-28.2-15
			c-5.8-9-4.6-18.7,2.9-27c8.1-8.9,18.8-13,30.1-15.6c24.8-5.6,49.7-5.5,74,2c7.6,2.3,15,6.5,21.3,11.3c7.5,5.6,9.9,14.2,7.3,23.3
			c-3.1,10.8-10.6,18.2-21.6,19.8c-7.8,1.1-12.9,3.7-17.3,10.4c-4.9,7.5-13.3,10.8-22,12.5c-3.3,0.7-3.9,2.1-3.8,5
			c0.2,6,0.6,12,0.2,18c-0.3,4.5,1.4,7.4,4.5,10.3c16.2,15.2,46.2,18.9,68.5,7.9c13.8-6.8,23.8-16.9,27.5-32.3
			c2.1-8.9,1.4-17.5-4.1-25.3c-1.1-1.6-1.1-4.1-1.7-6.2c2.1,1.1,5.1,1.7,6.2,3.5c8.6,13.1,8.2,27,0.6,40.1
			c-4,6.9-10.3,12.4-15.5,18.6c-1.3,1.5-2.7,3.4-2.9,5.2c-2.7,27.9-13.1,52.3-33.7,71.5c-31.4,29.5-81.3,27.6-111-3.9
			c-17.9-19-27.8-41.5-29.6-67.6c-0.1-1.9-1.6-4.2-3.2-5.5c-14-11.6-22-25.7-19.5-44.4c0.8-6.1,3.3-11.5,8.1-15.6
			c0.9-0.7,2.6-0.5,4-0.6c-0.1,1,0.2,2.4-0.3,3c-14.3,17.8-3.7,40.7,10.2,52.1c23.3,19.2,62,18.2,83.6-2.4c1.3-1.3,2.7-3.2,2.8-4.9
			C520.6,550.7,520.4,542.3,520.4,533.5z M559.9,506c8.6-0.9,16-3.8,21.1-11.3c7.1-10.4,5.3-20.5-5.2-27.4
			c-3.3-2.2-6.9-4.1-10.7-5.3c-20.6-6.6-41.6-8.5-63-5.7c-12.4,1.6-24.5,4.7-35.2,11.8c-8.6,5.7-11.7,12.6-9.5,20.1
			c3.1,10.7,15.8,18.7,26.4,17.4c0.4-3.9,0.5-7.6,1.3-11.2c0.2-0.9,2.6-1.4,3.9-2.1c0.5,1.4,1.4,2.7,1.6,4.1c0.2,2.4-0.5,5,0,7.3
			c5.6,23.1,32.7,30.5,50.7,18.2c8.1-5.5,13.1-13.6,12.4-24.2c-0.1-1.7,0.9-3.5,1.3-5.3c1.6,1.4,4.1,2.6,4.6,4.4
			C560.5,499.5,559.9,502.6,559.9,506z M462.9,635.6c0.4-1.9,0.9-3,0.9-4.1c0.2-7.2,3.7-12.7,9.1-17c13.7-11.2,31.6-10.9,45.7,1.1
			c3.4,2.9,5.2,2.6,8.2-0.2c2.5-2.3,5.7-4.1,8.8-5.5c18.4-8.3,37.1-1.3,43.8,16.3c0.9,2.3,1.4,4.8,2.3,7.7
			c11.7-17.3,19-35.3,21.4-55.9c-1.5,0.5-2.5,0.7-3.3,1.1c-16.2,7.5-33.2,9.1-50,3.5c-8.3-2.8-15.7-8.4-23.4-12.9
			c-2.3-1.3-3.9-2.4-6.5-0.2c-21.6,17.2-45.5,20.7-71.3,11.4c-2.7-1-5.3-2.3-8.5-3.6C442.5,599,448.6,618.4,462.9,635.6z
			 M523.2,628.1c-2-2.3-3.4-4-4.9-5.5c-6.9-7.2-15.1-11.3-25.3-10.6c-11.2,0.8-20.2,7-22.7,15.8c-2.9,9.9,0.2,16.7,11,24.3
			c16.6,11.6,35.1,14.4,54.7,11.4c13.4-2.1,25-7.9,34.8-17.2c5-4.7,6.2-10.3,4.4-16.9c-3.6-12.7-16.8-20.1-30.3-16.9
			C535.6,614.6,528.7,620.1,523.2,628.1z"/>
		<path class="st10" d="M357.1,549.2c-7.2,6-14.4,12-22.1,18.3c6.8,16.4,16.1,32.4,27.6,47.2c29.4,37.9,66.1,65.8,112.9,78.2
			c63.5,16.8,120.5,1.8,171.1-38.9c29.4-23.7,50.3-53.8,64.1-88.8c0.3-0.8,0.4-1.6,0.6-2.1c-5.6-4.7-11.1-9.2-16.5-13.8
			c0.2-0.3,0.4-0.5,0.6-0.8c16.3,7.2,32.7,14.4,49,21.5c0,0.4-0.1,0.7-0.1,1.1c-9.4-1.8-18.8-3.5-28.1-5.3
			c-4.2,9.1-7.9,18.9-13,27.9c-33.7,59.7-83.7,97.4-151.8,109c-54,9.1-102.5-5.5-146.2-37.5c-32.9-24.2-57.7-54.9-74.2-92.3
			c-1.6-3.7-3.4-4.2-7-3.7c-6.1,0.8-12.3,0.8-18.6,0c18.7-3.1,34.5-12.7,51-20.7C356.7,548.7,356.9,549,357.1,549.2z"/>
		<path class="st10" d="M356.5,548.4c0.4-0.1,0.8-0.1,1.2-0.2c-0.2,0.3-0.4,0.6-0.6,0.9C356.9,549,356.7,548.7,356.5,548.4z"/>
		<path class="st7" d="M250.8,565.7c-0.1,0.1-0.2,0.2-0.3,0.3c-0.1-0.2-0.2-0.4-0.3-0.6c0-0.1,0.2-0.2,0.3-0.3
			C250.5,565.3,250.7,565.5,250.8,565.7z"/>
		<path class="st7" d="M248.1,566.7c0.1-0.2,0.2-0.4,0.4-0.6c0.1,0.1,0.3,0.2,0.3,0.3c-0.1,0.2-0.2,0.4-0.3,0.7
			C248.4,567,248.3,566.8,248.1,566.7z"/>
		<path class="st1" d="M648.1,819c-0.3,0-0.5,0-0.8,0.1c0-0.2,0-0.3,0-0.5c0.2,0.2,0.5,0.4,0.7,0.5C648,819.1,648.1,819,648.1,819z"
			/>
		<path class="st11" d="M700.4,506.3c36.5-8,58.5-29.3,59.3-67.6c0.6-25.5-12-45.8-34.9-56.1c-34.5-15.6-63.5-4.3-86.8,24.8
			c5.8-27.7,44.5-51.4,76.5-47.1c40,5.4,62.6,39.2,61.8,72.7C775.5,473.7,742.6,506.9,700.4,506.3z"/>
		<path class="st12" d="M645.8,409.1c-8.9,20.2-6.4,38.6,4.7,55.9c8.4,13.1,20.4,21.2,35.6,24.5c26.5,5.8,59.9-11.2,68.8-48.4
			c-0.1,12.8-4.5,24.3-12,34.5c-11.3,15.3-26.8,23-45.9,24.7c-35.1,3.2-60.3-24-63.2-54.7c-1.2-12.6,2-23.6,8.5-34
			c0.3-0.6,0.8-1.1,1.3-1.5C643.8,409.8,644.2,409.8,645.8,409.1z"/>
		<path class="st13" d="M675.3,430.9c-10.4-0.2-19-9.5-18.8-20.5c0.2-10.6,9.9-20.2,20.2-19.9c10.9,0.3,19.6,9.5,19.3,20.6
			C695.7,422.4,686.6,431.1,675.3,430.9z"/>
		<path class="st14" d="M354.1,505c-39.4,6.7-74.2-17.9-82.8-55.5c-9.5-41.8,13.6-78.5,54.2-88.5c31.2-7.7,69.7,9.9,81.5,42.1
			c-26.2-28.5-56.2-38.5-91.4-17.8c-22.2,13.1-33,39.3-28.3,63.5c3.1,16,10.4,29.7,23,40.3C323,499.6,337.9,503.9,354.1,505z"/>
		<path class="st15" d="M296.6,414.7c0.5,8.8,0.5,17.3,1.5,25.7c2.6,21.3,21.5,41.3,42.7,45.6c31.7,6.5,60.6-14.7,64.3-46.7
			c1.5-12.9-1.4-24.7-7.3-35.9c-0.2-0.4-0.4-0.9-0.5-1.4c0-0.1,0.1-0.3,0.2-0.4c13.7,9.6,20.9,36.7,9.4,61.8
			c-16,35-49.7,42.8-79,30.2C292.5,478.4,285.9,437.5,296.6,414.7z"/>
		<path class="st13" d="M327.1,431.6c-11.1-0.1-20.6-9.7-20.6-20.7c0-11.5,9.4-20.7,21.2-20.6c10.8,0,20.2,9.6,20.2,20.5
			C347.8,422.7,338.9,431.7,327.1,431.6z"/>
		<path class="st15" d="M395.9,399.2c-0.1-0.2-0.3-0.4-0.4-0.6c0.2,0.1,0.4,0.3,0.6,0.4L395.9,399.2z"/>
		<path class="st15" d="M396.1,399c0.1,0.2,0.3,0.4,0.4,0.6c-0.2-0.2-0.4-0.3-0.6-0.5C395.9,399.2,396.1,399,396.1,399z"/>
		<path class="st14" d="M407.4,404.3c0.1,0,0.3,0,0.3,0c0.1,0.1,0.1,0.2,0.2,0.3c-0.2,0-0.4,0-0.6,0
			C407.2,404.5,407.3,404.4,407.4,404.3z"/>
		<path class="st16" d="M559.9,506c0-3.4,0.6-6.5-0.2-9.2c-0.5-1.8-3-3-4.6-4.4c-0.5,1.8-1.5,3.6-1.3,5.3
			c0.7,10.6-4.3,18.7-12.4,24.2c-18.1,12.3-45.2,4.8-50.7-18.2c-0.6-2.3,0.2-4.9,0-7.3c-0.1-1.4-1-2.8-1.6-4.1
			c-1.4,0.7-3.7,1.1-3.9,2.1c-0.8,3.6-0.9,7.3-1.3,11.2c-10.6,1.3-23.3-6.7-26.4-17.4c-2.2-7.5,1-14.4,9.5-20.1
			c10.6-7.1,22.8-10.2,35.2-11.8c21.4-2.8,42.5-0.9,63,5.7c3.7,1.2,7.4,3.1,10.7,5.3c10.5,7,12.4,17,5.2,27.4
			C575.9,502.1,568.5,505.1,559.9,506z"/>
		<path class="st17" d="M462.9,635.6c-14.3-17.2-20.4-36.6-22.9-58.2c3.1,1.3,5.8,2.6,8.5,3.6c25.8,9.2,49.7,5.8,71.3-11.4
			c2.7-2.1,4.2-1.1,6.5,0.2c7.7,4.5,15.1,10.1,23.4,12.9c16.8,5.6,33.8,4,50-3.5c0.9-0.4,1.8-0.6,3.3-1.1
			c-2.4,20.6-9.7,38.7-21.4,55.9c-0.9-3-1.4-5.4-2.3-7.7c-6.7-17.7-25.3-24.7-43.8-16.3c-3.1,1.4-6.3,3.2-8.8,5.5
			c-3,2.8-4.9,3-8.2,0.2c-14.1-11.9-32-12.2-45.7-1.1c-5.3,4.4-8.9,9.8-9.1,17C463.8,632.6,463.4,633.7,462.9,635.6z"/>
		<path class="st18" d="M523.2,628.1c5.6-8.1,12.4-13.5,21.6-15.6c13.6-3.1,26.8,4.2,30.3,16.9c1.8,6.5,0.6,12.2-4.4,16.9
			c-9.8,9.3-21.4,15.1-34.8,17.2c-19.6,3-38.1,0.2-54.7-11.4c-10.8-7.6-13.9-14.4-11-24.3c2.6-8.8,11.5-15,22.7-15.8
			c10.3-0.7,18.4,3.4,25.3,10.6C519.8,624.2,521.1,625.8,523.2,628.1z"/>
	</g>
</g>
</svg>
